<?xml version="1.0" encoding="UTF-8" standalone="no"?>
<!-- Created with Inkscape (http://www.inkscape.org/) -->

<svg
   xmlns:dc="http://purl.org/dc/elements/1.1/"
   xmlns:cc="http://creativecommons.org/ns#"
   xmlns:rdf="http://www.w3.org/1999/02/22-rdf-syntax-ns#"
   xmlns:svg="http://www.w3.org/2000/svg"
   xmlns="http://www.w3.org/2000/svg"
   xmlns:sodipodi="http://sodipodi.sourceforge.net/DTD/sodipodi-0.dtd"
   xmlns:inkscape="http://www.inkscape.org/namespaces/inkscape"
   width="1000mm"
   height="1421.7927mm"
   viewBox="0 0 999.99999 1421.7927"
   version="1.1"
   id="svg1133"
   inkscape:version="0.92.4 (5da689c313, 2019-01-14)"
   sodipodi:docname="Indomobil Group.svg">
  <defs
     id="defs1127">
    <clipPath
       clipPathUnits="userSpaceOnUse"
       id="clipPath943">
      <path
         d="m 42.52,714.543 h 59.662 V 799.37 H 42.52 Z"
         id="path941"
         inkscape:connector-curvature="0" />
    </clipPath>
  </defs>
  <sodipodi:namedview
     id="base"
     pagecolor="#ffffff"
     bordercolor="#666666"
     borderopacity="1.0"
     inkscape:pageopacity="0.0"
     inkscape:pageshadow="2"
     inkscape:zoom="0.35"
     inkscape:cx="2064.1926"
     inkscape:cy="4203.5647"
     inkscape:document-units="mm"
     inkscape:current-layer="layer1"
     showgrid="false"
     fit-margin-top="0"
     fit-margin-left="0"
     fit-margin-right="0"
     fit-margin-bottom="0"
     inkscape:window-width="1920"
     inkscape:window-height="1001"
     inkscape:window-x="-9"
     inkscape:window-y="-9"
     inkscape:window-maximized="1" />
  <metadata
     id="metadata1130">
    <rdf:RDF>
      <cc:Work
         rdf:about="">
        <dc:format>image/svg+xml</dc:format>
        <dc:type
           rdf:resource="http://purl.org/dc/dcmitype/StillImage" />
        <dc:title></dc:title>
      </cc:Work>
    </rdf:RDF>
  </metadata>
  <g
     inkscape:label="Layer 1"
     inkscape:groupmode="layer"
     id="layer1"
     transform="translate(-315.29184,1279.9195)">
    <g
       id="g1878"
       transform="matrix(47.511745,0,0,47.511745,-14664.77,-6598.7724)">
      <g
         transform="matrix(0.35277777,0,0,-0.35277777,318.00286,111.94817)"
         id="g833">
        <path
           inkscape:connector-curvature="0"
           id="path835"
           style="fill:#3f98ce;fill-opacity:1;fill-rule:nonzero;stroke:none"
           d="m 0,0 -0.79,-0.045 -0.762,-0.122 -0.732,-0.212 -0.705,-0.288 -0.663,-0.348 -0.635,-0.426 -0.592,-0.469 -0.55,-0.547 -0.494,-0.591 -0.451,-0.653 -0.381,-0.682 -0.323,-0.744 -0.254,-0.758 -0.198,-0.804 -0.113,-0.835 -0.042,-0.85 v -68.064 l 0.042,-0.85 0.113,-0.834 0.198,-0.804 0.254,-0.774 0.323,-0.728 0.381,-0.682 0.451,-0.652 0.494,-0.592 0.55,-0.546 0.592,-0.485 0.635,-0.425 0.663,-0.349 0.705,-0.288 0.732,-0.212 0.762,-0.123 0.79,-0.045 h 44.278 l 0.789,0.045 0.762,0.123 0.733,0.212 0.705,0.288 0.677,0.349 0.635,0.425 0.592,0.485 0.55,0.546 0.494,0.592 0.451,0.652 0.38,0.682 0.325,0.728 0.253,0.774 0.198,0.804 0.113,0.834 0.042,0.85 v 68.064 l -0.042,0.85 -0.113,0.835 -0.198,0.804 -0.253,0.758 -0.325,0.744 -0.38,0.682 -0.451,0.653 -0.494,0.591 -0.55,0.547 -0.592,0.469 -0.635,0.426 -0.677,0.348 -0.705,0.288 -0.733,0.212 -0.762,0.122 L 44.278,0 Z m -0.635,-83.28 -0.62,0.106 -0.607,0.168 -0.578,0.243 -0.549,0.288 -0.508,0.349 -0.494,0.394 -0.437,0.44 -0.409,0.485 -0.367,0.531 -0.309,0.561 -0.269,0.608 -0.211,0.622 -0.155,0.666 -0.1,0.684 -0.027,0.697 v 68.064 l 0.027,0.699 0.1,0.682 0.155,0.652 0.211,0.638 0.269,0.592 0.309,0.575 0.367,0.532 0.409,0.485 0.437,0.44 0.494,0.394 0.508,0.335 0.549,0.287 0.578,0.244 0.607,0.166 0.62,0.107 L 0,-1.517 h 44.278 l 0.649,-0.029 0.62,-0.107 0.592,-0.166 0.578,-0.244 0.55,-0.287 0.522,-0.335 0.48,-0.394 0.45,-0.44 0.409,-0.485 0.353,-0.532 0.324,-0.575 0.268,-0.592 0.212,-0.638 0.155,-0.652 0.099,-0.682 0.028,-0.699 v -68.064 l -0.028,-0.697 -0.099,-0.684 -0.155,-0.666 -0.212,-0.622 -0.268,-0.608 -0.324,-0.561 -0.353,-0.531 -0.409,-0.485 -0.45,-0.44 -0.48,-0.394 -0.522,-0.349 -0.55,-0.288 -0.578,-0.243 -0.592,-0.168 -0.62,-0.106 -0.649,-0.03 H 0 Z" />
      </g>
      <path
         inkscape:connector-curvature="0"
         id="path837"
         style="fill:#3f98ce;fill-opacity:1;fill-rule:nonzero;stroke:none;stroke-width:0.35277775"
         d="m 317.51543,135.5621 h 0.5969 v -2.20839 h -0.5969 z" />
      <g
         transform="matrix(0.35277777,0,0,-0.35277777,331.86703,134.71649)"
         id="g839">
        <path
           inkscape:connector-curvature="0"
           id="path841"
           style="fill:#3f98ce;fill-opacity:1;fill-rule:nonzero;stroke:none"
           d="M 0,0 -0.17,0.281 -0.395,0.564 -0.55,0.69 -0.72,0.818 -0.903,0.93 l -0.211,0.113 0.198,0.282 0.141,0.268 0.097,0.268 0.057,0.254 0.029,0.253 -0.029,0.226 -0.057,0.226 -0.097,0.211 -0.128,0.185 -0.169,0.168 -0.183,0.155 -0.212,0.113 -0.24,0.099 -0.253,0.07 -0.282,0.043 h -0.296 -2.088 v -6.262 h 0.663 0.648 l 1.298,0.015 0.324,0.013 0.31,0.071 0.297,0.099 0.282,0.155 0.24,0.184 0.225,0.225 0.184,0.24 0.14,0.253 0.084,0.282 0.03,0.282 -0.015,0.297 z m -2.947,2.58 0.042,0.014 0.028,0.014 h 0.056 0.071 0.085 L -2.425,2.566 -2.299,2.524 -2.186,2.454 -2.073,2.368 -1.989,2.269 -1.918,2.13 -1.89,1.974 V 1.819 L -1.932,1.664 -2.004,1.536 -2.101,1.425 -2.227,1.339 -2.355,1.269 -2.511,1.227 -2.665,1.212 H -2.793 -2.877 -2.919 L -2.934,1.227 V 1.24 h -0.013 z m 1.509,-3.342 -0.057,-0.183 -0.113,-0.141 -0.141,-0.114 -0.169,-0.084 -0.197,-0.07 -0.226,-0.029 -0.225,-0.013 -0.184,0.013 -0.197,0.044 v 1.578 l 0.197,0.028 0.184,0.014 0.225,-0.014 0.226,-0.028 0.197,-0.069 0.169,-0.086 0.141,-0.113 0.113,-0.14 0.057,-0.17 0.028,-0.211 z" />
      </g>
      <g
         transform="matrix(0.35277777,0,0,-0.35277777,326.35515,134.40325)"
         id="g843">
        <path
           inkscape:connector-curvature="0"
           id="path845"
           style="fill:#3f98ce;fill-opacity:1;fill-rule:nonzero;stroke:none"
           d="m 0,0 -2.031,2.976 h -1.297 v -6.261 h 1.579 v 2.721 L 0,-3.06 1.918,-0.367 v -2.918 h 1.41 V 2.976 H 1.593 Z" />
      </g>
      <g
         transform="matrix(0.35277777,0,0,-0.35277777,333.46874,135.07985)"
         id="g847">
        <path
           inkscape:connector-curvature="0"
           id="path849"
           style="fill:#3f98ce;fill-opacity:1;fill-rule:nonzero;stroke:none"
           d="M 0,0 V 4.894 H -1.707 V 0 -1.368 H 0 1.833 V 0 Z" />
      </g>
      <path
         inkscape:connector-curvature="0"
         id="path851"
         style="fill:#3f98ce;fill-opacity:1;fill-rule:nonzero;stroke:none;stroke-width:0.35277775"
         d="m 332.03611,135.5621 h 0.6022 v -2.20839 h -0.6022 z" />
      <g
         transform="matrix(0.35277777,0,0,-0.35277777,330.03636,134.22419)"
         id="g853">
        <path
           inkscape:connector-curvature="0"
           id="path855"
           style="fill:#3f98ce;fill-opacity:1;fill-rule:nonzero;stroke:none"
           d="m 0,0 -0.084,0.31 -0.114,0.311 -0.126,0.282 -0.169,0.268 -0.198,0.254 -0.212,0.24 -0.239,0.211 -0.254,0.183 -0.269,0.17 -0.282,0.139 -0.309,0.114 -0.31,0.071 L -2.892,2.608 -3.229,2.623 -3.568,2.608 -3.892,2.553 -4.202,2.482 -4.498,2.368 -4.795,2.229 -5.062,2.059 -5.317,1.876 -5.542,1.665 -5.754,1.425 -5.936,1.171 -6.106,0.903 -6.247,0.621 -6.359,0.31 -6.43,0 -6.487,-0.324 -6.5,-0.663 l 0.013,-0.339 0.057,-0.324 0.071,-0.309 0.112,-0.312 0.141,-0.28 0.17,-0.269 0.182,-0.253 0.212,-0.24 0.225,-0.212 0.255,-0.183 0.267,-0.169 0.297,-0.141 0.296,-0.114 0.31,-0.069 0.324,-0.057 0.339,-0.014 0.337,0.014 0.326,0.057 0.31,0.069 0.309,0.114 0.282,0.141 0.269,0.169 0.254,0.183 0.239,0.212 0.212,0.24 0.198,0.253 0.169,0.269 0.126,0.28 0.114,0.312 0.084,0.309 0.056,0.324 0.014,0.339 -0.014,0.339 z m -1.537,-1.015 -0.113,-0.311 -0.155,-0.296 -0.211,-0.268 -0.255,-0.211 -0.295,-0.156 -0.326,-0.098 -0.337,-0.042 -0.339,0.042 -0.324,0.098 -0.296,0.156 -0.254,0.211 -0.197,0.268 -0.17,0.296 -0.099,0.311 -0.027,0.352 0.027,0.353 0.099,0.31 0.17,0.297 0.197,0.267 0.254,0.211 0.296,0.156 0.324,0.098 0.339,0.043 L -2.892,1.029 -2.566,0.931 -2.271,0.775 -2.016,0.564 -1.805,0.297 -1.65,0 l 0.113,-0.31 0.028,-0.353 z" />
      </g>
      <g
         transform="matrix(0.35277777,0,0,-0.35277777,322.42031,133.97036)"
         id="g857">
        <path
           inkscape:connector-curvature="0"
           id="path859"
           style="fill:#3f98ce;fill-opacity:1;fill-rule:nonzero;stroke:none"
           d="M 0,0 -0.057,0.211 -0.127,0.409 -0.225,0.606 -0.339,0.789 -0.606,1.114 -0.945,1.383 -1.326,1.579 -1.537,1.65 -1.749,1.706 -1.974,1.734 -2.2,1.749 h -2.087 -0.818 v -6.262 h 0.818 2.087 l 0.226,0.015 0.225,0.027 0.212,0.057 0.211,0.071 0.381,0.197 0.339,0.267 0.267,0.325 0.114,0.184 0.098,0.198 0.07,0.196 0.057,0.212 0.028,0.225 0.014,0.226 v 1.862 L 0.028,-0.226 Z M -1.284,-1.932 -1.312,-2.172 -1.382,-2.397 -1.495,-2.61 -1.65,-2.793 -1.833,-2.934 -2.045,-3.046 -2.271,-3.117 -2.524,-3.145 H -3.399 V 0.31 h 0.875 l 0.253,-0.029 0.226,-0.07 0.212,-0.112 0.183,-0.156 0.155,-0.183 0.113,-0.198 0.07,-0.225 0.028,-0.24 z" />
      </g>
      <g
         transform="matrix(0.35277777,0,0,-0.35277777,320.35585,133.35356)"
         id="g861">
        <path
           inkscape:connector-curvature="0"
           id="path863"
           style="fill:#3f98ce;fill-opacity:1;fill-rule:nonzero;stroke:none"
           d="M 0,0 H -1.707 V -3.258 L -4.231,0 h -1.465 v -6.261 h 1.705 v 3.257 l 2.608,-3.257 H 0 0.07 L 0,-6.163 Z" />
      </g>
      <g
         transform="matrix(0.35277777,0,0,-0.35277777,324.90263,134.22419)"
         id="g865">
        <path
           inkscape:connector-curvature="0"
           id="path867"
           style="fill:#e22e2e;fill-opacity:1;fill-rule:nonzero;stroke:none"
           d="m 0,0 -0.07,0.324 -0.113,0.297 -0.141,0.295 -0.169,0.269 -0.184,0.253 -0.211,0.24 -0.24,0.212 -0.254,0.183 -0.282,0.169 -0.282,0.141 -0.31,0.113 -0.31,0.07 L -2.89,2.623 -3.229,2.637 -3.568,2.623 -3.892,2.566 -4.216,2.496 -4.512,2.383 -4.809,2.242 -5.077,2.073 -5.331,1.89 -5.57,1.678 -5.782,1.438 -5.965,1.185 -6.134,0.916 -6.275,0.621 -6.388,0.324 -6.458,0 l -0.057,-0.324 -0.014,-0.339 0.014,-0.339 0.057,-0.324 0.07,-0.309 0.113,-0.312 0.141,-0.28 0.169,-0.284 0.183,-0.253 0.212,-0.24 0.239,-0.212 0.254,-0.183 0.268,-0.169 0.297,-0.141 0.296,-0.113 0.324,-0.07 0.324,-0.056 0.339,-0.015 0.339,0.015 0.324,0.056 0.31,0.07 0.31,0.113 0.282,0.141 0.282,0.169 0.254,0.183 0.24,0.212 0.211,0.24 0.184,0.253 0.169,0.284 0.141,0.28 0.113,0.312 0.07,0.309 0.057,0.324 0.013,0.339 -0.013,0.339 z m -0.324,-0.959 -0.042,-0.296 -0.072,-0.268 -0.098,-0.268 -0.127,-0.254 -0.141,-0.239 -0.169,-0.227 -0.197,-0.21 -0.212,-0.198 -0.226,-0.169 -0.24,-0.141 -0.253,-0.128 -0.269,-0.097 -0.267,-0.072 -0.297,-0.042 -0.295,-0.014 -0.296,0.014 -0.297,0.042 -0.268,0.072 -0.267,0.097 -0.255,0.128 -0.253,0.141 -0.226,0.169 -0.211,0.198 -0.183,0.21 -0.17,0.227 -0.141,0.239 -0.127,0.254 -0.098,0.268 -0.071,0.268 -0.042,0.296 -0.014,0.296 0.014,0.297 0.042,0.296 0.071,0.268 0.098,0.267 0.127,0.255 0.141,0.253 0.17,0.225 0.183,0.212 0.211,0.183 0.226,0.169 0.253,0.141 0.255,0.128 0.267,0.099 0.268,0.07 0.297,0.042 0.296,0.014 L -2.934,2.242 -2.637,2.2 -2.37,2.13 -2.101,2.031 -1.848,1.903 -1.608,1.762 -1.382,1.593 -1.17,1.41 -0.973,1.198 -0.804,0.973 -0.663,0.72 l 0.127,-0.255 0.098,-0.267 0.072,-0.268 0.042,-0.296 0.013,-0.297 z" />
      </g>
      <g
         transform="matrix(0.35277777,0,0,-0.35277777,324.63399,134.27883)"
         id="g869">
        <path
           inkscape:connector-curvature="0"
           id="path871"
           style="fill:#e22e2e;fill-opacity:1;fill-rule:nonzero;stroke:none"
           d="M 0,0 -0.057,0.24 -0.141,0.465 -0.24,0.691 -0.367,0.902 -0.522,1.1 -0.678,1.284 -0.86,1.438 -1.058,1.593 -1.269,1.72 -1.495,1.819 -1.72,1.903 -1.96,1.96 -2.214,2.002 -2.467,2.016 -2.722,2.002 -2.976,1.96 -3.216,1.903 -3.441,1.819 -3.666,1.72 -3.877,1.593 -4.075,1.438 -4.258,1.284 -4.414,1.1 -4.569,0.902 -4.696,0.691 -4.795,0.465 -4.879,0.24 -4.935,0 l -0.043,-0.255 -0.014,-0.253 0.014,-0.254 0.043,-0.253 0.056,-0.24 0.084,-0.225 0.099,-0.227 0.127,-0.211 0.155,-0.197 0.156,-0.183 0.183,-0.156 0.198,-0.154 0.211,-0.128 0.225,-0.099 0.225,-0.084 0.24,-0.057 0.254,-0.042 0.255,-0.015 0.253,0.015 0.254,0.042 0.24,0.057 0.225,0.084 0.226,0.099 0.211,0.128 0.198,0.154 0.182,0.156 0.156,0.183 0.155,0.197 0.127,0.211 0.099,0.227 0.084,0.225 0.057,0.24 0.042,0.253 0.014,0.254 -0.014,0.253 z m -0.352,-0.72 -0.029,-0.211 -0.057,-0.198 -0.07,-0.197 -0.197,-0.367 -0.268,-0.309 -0.311,-0.269 -0.366,-0.196 -0.198,-0.071 -0.197,-0.057 -0.212,-0.028 -0.21,-0.015 -0.227,0.015 -0.196,0.028 -0.212,0.057 -0.198,0.071 -0.352,0.196 -0.311,0.269 -0.141,0.156 -0.126,0.153 -0.113,0.184 -0.099,0.183 -0.071,0.197 -0.056,0.198 -0.028,0.211 -0.014,0.212 0.014,0.226 0.028,0.198 0.056,0.21 0.071,0.198 0.099,0.183 0.113,0.169 0.267,0.311 0.311,0.268 0.169,0.113 0.183,0.098 0.198,0.071 0.212,0.056 0.196,0.028 0.227,0.014 0.21,-0.014 0.212,-0.028 0.197,-0.056 0.198,-0.071 0.183,-0.098 0.183,-0.113 0.156,-0.127 0.155,-0.141 0.268,-0.311 0.197,-0.352 0.07,-0.198 0.057,-0.21 0.029,-0.198 0.013,-0.226 z" />
      </g>
      <g
         transform="matrix(0.35277777,0,0,-0.35277777,324.32542,134.21918)"
         id="g873">
        <path
           inkscape:connector-curvature="0"
           id="path875"
           style="fill:#e22e2e;fill-opacity:1;fill-rule:nonzero;stroke:none"
           d="M 0,0 -0.17,0.282 -0.38,0.55 -0.634,0.762 -0.916,0.931 -1.241,1.029 -1.593,1.072 -1.946,1.029 -2.27,0.931 -2.552,0.762 -2.82,0.55 -3.031,0.282 -3.201,0 -3.3,-0.324 -3.342,-0.677 -3.3,-1.029 l 0.099,-0.324 0.17,-0.283 0.211,-0.254 0.268,-0.21 0.282,-0.171 0.324,-0.097 0.353,-0.043 0.352,0.043 0.325,0.097 0.282,0.171 0.254,0.21 0.21,0.254 0.17,0.283 0.099,0.324 0.042,0.352 -0.042,0.353 z m -0.282,-0.945 -0.084,-0.253 -0.113,-0.227 -0.169,-0.196 -0.198,-0.17 -0.225,-0.112 -0.254,-0.086 -0.268,-0.027 -0.268,0.027 -0.254,0.086 -0.225,0.112 -0.198,0.17 -0.169,0.196 -0.113,0.227 -0.084,0.253 -0.028,0.268 0.028,0.268 0.084,0.253 0.113,0.226 0.169,0.198 0.198,0.17 0.225,0.112 0.254,0.084 0.268,0.029 0.268,-0.029 0.254,-0.084 0.225,-0.112 0.198,-0.17 0.169,-0.198 0.113,-0.226 0.084,-0.253 0.028,-0.268 z" />
      </g>
      <g
         transform="matrix(0.35277777,0,0,-0.35277777,334.1901,123.31488)"
         id="g877">
        <path
           inkscape:connector-curvature="0"
           id="path879"
           style="fill:#3f98ce;fill-opacity:1;fill-rule:nonzero;stroke:none"
           d="m 0,0 -0.099,1.198 -0.141,1.185 -0.211,1.17 -0.268,1.157 -0.325,1.128 -0.366,1.1 -0.436,1.085 -0.467,1.044 -0.535,1.03 -0.564,1.001 -0.621,0.958 -0.663,0.931 -0.705,0.902 -0.747,0.861 -0.79,0.832 -0.831,0.789 -0.861,0.747 -0.902,0.706 -0.931,0.663 -0.973,0.62 -0.987,0.564 -1.029,0.535 -1.058,0.467 -1.072,0.436 -1.114,0.366 -1.128,0.325 -1.142,0.269 -1.17,0.21 -1.185,0.143 -1.213,0.097 -1.212,0.029 -1.227,-0.029 -1.199,-0.097 -1.184,-0.143 -1.171,-0.21 -1.157,-0.269 -1.128,-0.325 -1.099,-0.366 -1.086,-0.436 -1.043,-0.467 -1.03,-0.535 -1,-0.564 -0.959,-0.62 -0.931,-0.663 -0.903,-0.706 -0.86,-0.747 -0.832,-0.789 -0.789,-0.832 -0.748,-0.861 -0.705,-0.902 -0.663,-0.931 -0.621,-0.958 -0.564,-1.001 -0.536,-1.03 -0.464,-1.044 -0.438,-1.085 -0.366,-1.1 -0.325,-1.128 -0.268,-1.157 -0.211,-1.17 -0.141,-1.185 -0.099,-1.198 -0.027,-1.227 0.027,-1.212 0.099,-1.213 0.141,-1.185 0.211,-1.17 0.268,-1.143 0.325,-1.128 0.366,-1.114 0.438,-1.071 0.464,-1.058 0.536,-1.03 0.564,-0.987 0.621,-0.972 0.663,-0.931 0.705,-0.903 0.748,-0.86 0.789,-0.832 0.832,-0.789 0.86,-0.747 0.903,-0.706 0.931,-0.663 0.959,-0.62 1,-0.564 1.03,-0.535 1.043,-0.466 1.086,-0.437 1.099,-0.367 1.128,-0.324 1.157,-0.269 1.171,-0.21 1.184,-0.141 1.199,-0.099 1.227,-0.028 1.212,0.028 1.213,0.099 1.185,0.141 1.17,0.21 1.142,0.269 1.128,0.324 1.114,0.367 1.072,0.437 1.058,0.466 1.029,0.535 0.987,0.564 0.973,0.62 0.931,0.663 0.902,0.706 0.861,0.747 0.831,0.789 0.79,0.832 0.747,0.86 0.705,0.903 0.663,0.931 0.621,0.972 0.564,0.987 0.535,1.03 0.467,1.058 0.436,1.071 0.366,1.114 0.325,1.128 0.268,1.143 0.211,1.17 0.141,1.185 0.099,1.213 0.028,1.212 z m -0.846,-2.397 -0.085,-1.171 -0.155,-1.142 -0.197,-1.128 -0.253,-1.1 -0.31,-1.085 -0.368,-1.072 -0.409,-1.044 -0.465,-1.015 -0.509,-0.987 -0.549,-0.959 -0.592,-0.931 -0.648,-0.902 -0.678,-0.874 -0.718,-0.833 -0.762,-0.79 -0.789,-0.76 -0.833,-0.72 -0.874,-0.677 -0.903,-0.649 -0.93,-0.591 -0.959,-0.551 -0.988,-0.507 -1.015,-0.465 -1.043,-0.41 -1.072,-0.366 -1.086,-0.31 -1.099,-0.254 -1.128,-0.197 -1.143,-0.156 -1.17,-0.084 -1.17,-0.028 -1.185,0.028 -1.156,0.084 -1.143,0.156 -1.128,0.197 -1.113,0.254 -1.086,0.31 -1.057,0.366 -1.044,0.41 -1.016,0.465 -0.987,0.507 -0.958,0.551 -0.931,0.591 -0.903,0.649 -0.874,0.677 -0.832,0.72 -0.79,0.76 -0.762,0.79 -0.718,0.833 -0.692,0.874 -0.634,0.902 -0.592,0.931 -0.564,0.959 -0.508,0.987 -0.451,1.015 -0.408,1.044 -0.367,1.072 -0.311,1.085 -0.253,1.1 -0.198,1.128 -0.155,1.142 -0.085,1.171 -0.028,1.17 0.028,1.185 0.085,1.156 0.155,1.142 0.198,1.128 0.253,1.114 0.311,1.086 0.367,1.057 0.408,1.044 0.451,1.016 0.508,0.987 0.564,0.958 0.592,0.931 0.634,0.902 0.692,0.874 0.718,0.833 0.762,0.79 0.79,0.761 0.832,0.719 0.874,0.691 0.903,0.635 0.931,0.591 0.958,0.564 0.987,0.509 1.016,0.451 1.044,0.409 1.057,0.367 1.086,0.309 1.113,0.255 1.128,0.196 1.143,0.156 1.156,0.084 1.185,0.029 1.17,-0.029 1.17,-0.084 1.143,-0.156 1.128,-0.196 1.099,-0.255 1.086,-0.309 1.072,-0.367 1.043,-0.409 1.015,-0.451 0.988,-0.509 0.959,-0.564 0.93,-0.591 0.903,-0.635 0.874,-0.691 0.833,-0.719 0.789,-0.761 0.762,-0.79 0.718,-0.833 0.678,-0.874 0.648,-0.902 0.592,-0.931 0.549,-0.958 0.509,-0.987 0.465,-1.016 0.409,-1.044 0.368,-1.057 0.31,-1.086 0.253,-1.114 0.197,-1.128 0.155,-1.142 0.085,-1.156 0.028,-1.185 z" />
      </g>
      <g
         transform="matrix(0.35277777,0,0,-0.35277777,333.49379,122.96176)"
         id="g881">
        <path
           inkscape:connector-curvature="0"
           id="path883"
           style="fill:#3f98ce;fill-opacity:1;fill-rule:nonzero;stroke:none"
           d="m 0,0 -0.141,1.1 -0.198,1.072 -0.239,1.057 -0.296,1.029 -0.339,1.016 -0.395,1.001 -0.437,0.973 -0.494,0.945 -0.521,0.917 -0.564,0.888 -0.621,0.86 -0.649,0.818 -0.69,0.804 -0.72,0.762 -0.762,0.719 -0.802,0.69 -0.819,0.649 -0.86,0.62 -0.889,0.564 -0.916,0.521 -0.945,0.494 -0.972,0.438 -1.002,0.394 -1.015,0.339 -1.029,0.296 -1.058,0.24 -1.071,0.197 -1.101,0.142 -1.099,0.084 -1.128,0.028 -1.129,-0.028 -1.1,-0.084 -1.099,-0.142 -1.072,-0.197 -1.058,-0.24 -1.029,-0.296 -1.015,-0.339 -1.002,-0.394 -0.972,-0.438 -0.945,-0.494 -0.918,-0.521 -0.887,-0.564 -0.86,-0.62 -0.818,-0.649 -0.804,-0.69 -0.762,-0.719 -0.719,-0.762 -0.691,-0.804 -0.649,-0.818 L -39.92,9.998 -40.484,9.11 -41.006,8.193 -41.5,7.248 -41.938,6.275 -42.332,5.274 -42.671,4.258 -42.967,3.229 -43.206,2.172 -43.404,1.1 -43.546,0 l -0.083,-1.1 -0.029,-1.127 0.029,-1.128 0.083,-1.101 0.142,-1.1 0.198,-1.072 0.239,-1.057 0.296,-1.029 0.339,-1.016 0.394,-1.001 0.438,-0.973 0.494,-0.944 0.522,-0.917 0.564,-0.889 0.619,-0.86 0.649,-0.817 0.691,-0.804 0.719,-0.762 0.762,-0.719 0.804,-0.691 0.818,-0.649 0.86,-0.62 0.887,-0.564 0.918,-0.522 0.945,-0.493 0.972,-0.438 1.002,-0.395 1.015,-0.338 1.029,-0.296 1.058,-0.24 1.072,-0.197 1.099,-0.141 1.1,-0.085 1.129,-0.028 1.128,0.028 1.099,0.085 1.101,0.141 1.071,0.197 1.058,0.24 1.029,0.296 1.015,0.338 1.002,0.395 0.972,0.438 0.945,0.493 0.916,0.522 0.889,0.564 0.86,0.62 0.819,0.649 0.802,0.691 0.762,0.719 0.72,0.762 0.69,0.804 0.649,0.817 0.621,0.86 0.564,0.889 0.521,0.917 0.494,0.944 0.437,0.973 0.395,1.001 0.339,1.016 0.296,1.029 0.239,1.057 0.198,1.072 0.141,1.1 0.084,1.101 0.028,1.128 -0.028,1.127 z m -0.762,-3.3 -0.084,-1.071 -0.127,-1.043 -0.183,-1.044 -0.24,-1.016 -0.282,-0.987 -0.339,-0.973 -0.381,-0.959 -0.423,-0.93 -0.465,-0.916 -0.507,-0.875 -0.55,-0.86 -0.578,-0.818 -0.636,-0.804 -0.661,-0.762 -0.692,-0.733 -0.733,-0.691 -0.762,-0.662 -0.804,-0.636 -0.817,-0.577 -0.861,-0.549 -0.874,-0.509 -0.916,-0.465 -0.931,-0.424 -0.959,-0.38 -0.973,-0.338 -0.987,-0.282 -1.015,-0.239 -1.044,-0.184 -1.043,-0.128 -1.072,-0.084 -1.071,-0.027 -1.087,0.027 -1.058,0.084 -1.057,0.128 -1.029,0.184 -1.015,0.239 -1.002,0.282 -0.972,0.338 -0.959,0.38 -0.931,0.424 -0.903,0.465 -0.888,0.509 -0.859,0.549 -0.819,0.577 -0.804,0.636 -0.761,0.662 -0.733,0.691 -0.691,0.733 -0.663,0.762 -0.635,0.804 -0.577,0.818 -0.551,0.86 -0.507,0.875 -0.466,0.916 -0.423,0.93 -0.366,0.959 -0.339,0.973 -0.282,0.987 -0.24,1.016 -0.183,1.044 -0.126,1.043 -0.086,1.071 -0.028,1.073 0.028,1.085 0.086,1.058 0.126,1.057 0.183,1.029 0.24,1.016 0.282,1.002 0.339,0.972 0.366,0.958 0.423,0.931 0.466,0.903 0.507,0.888 0.551,0.86 0.577,0.818 0.635,0.804 0.663,0.762 0.691,0.732 0.733,0.692 0.761,0.663 0.804,0.634 0.819,0.578 0.859,0.55 0.888,0.508 0.903,0.465 0.931,0.423 0.959,0.367 0.972,0.338 1.002,0.282 1.015,0.24 1.029,0.183 1.057,0.128 1.058,0.084 1.087,0.028 1.071,-0.028 1.072,-0.084 1.043,-0.128 1.044,-0.183 1.015,-0.24 0.987,-0.282 0.973,-0.338 0.959,-0.367 0.931,-0.423 0.916,-0.465 0.874,-0.508 0.861,-0.55 0.817,-0.578 0.804,-0.634 0.762,-0.663 0.733,-0.692 0.692,-0.732 0.661,-0.762 0.636,-0.804 0.578,-0.818 0.55,-0.86 0.507,-0.888 0.465,-0.903 0.423,-0.931 0.381,-0.958 0.339,-0.972 0.282,-1.002 0.24,-1.016 0.183,-1.029 0.127,-1.057 0.084,-1.058 0.029,-1.085 z" />
      </g>
      <g
         transform="matrix(0.35277777,0,0,-0.35277777,332.76252,123.03633)"
         id="g885">
        <path
           inkscape:connector-curvature="0"
           id="path887"
           style="fill:#3f98ce;fill-opacity:1;fill-rule:nonzero;stroke:none"
           d="M 0,0 -0.127,0.987 -0.311,1.96 -0.522,2.919 -0.79,3.864 -1.114,4.78 -1.467,5.668 -1.861,6.557 -2.299,7.403 -2.778,8.234 -3.286,9.039 -3.85,9.814 l -0.578,0.748 -0.634,0.719 -0.649,0.691 -0.691,0.663 -0.719,0.62 -0.747,0.592 -0.776,0.55 -0.804,0.522 -0.832,0.465 -0.861,0.438 -0.873,0.409 -0.903,0.352 -0.916,0.31 -0.932,0.268 -0.958,0.212 -0.973,0.183 -0.987,0.127 -1.001,0.071 -1.015,0.027 -1.016,-0.027 -1.002,-0.071 -0.986,-0.127 -0.974,-0.183 -0.958,-0.212 -0.945,-0.268 -0.917,-0.31 -0.887,-0.352 -0.89,-0.409 -0.846,-0.438 -0.831,-0.465 -0.804,-0.522 -0.775,-0.55 -0.747,-0.592 -0.72,-0.62 -0.691,-0.663 -0.663,-0.691 -0.62,-0.719 -0.592,-0.748 -0.551,-0.775 -0.522,-0.805 -0.465,-0.831 -0.436,-0.846 -0.41,-0.889 L -38.299,4.78 -38.61,3.864 -38.877,2.919 -39.089,1.96 -39.272,0.987 -39.4,0 l -0.069,-1.002 -0.028,-1.014 0.028,-1.015 0.069,-1.002 0.128,-0.987 0.183,-0.973 0.212,-0.959 0.267,-0.931 0.311,-0.917 0.352,-0.901 0.41,-0.875 0.436,-0.86 0.465,-0.832 0.522,-0.803 0.551,-0.776 0.592,-0.748 0.62,-0.719 0.663,-0.691 0.691,-0.648 0.72,-0.635 0.747,-0.578 0.775,-0.564 0.804,-0.507 0.831,-0.48 0.846,-0.437 0.89,-0.394 0.887,-0.354 0.917,-0.324 0.945,-0.269 0.958,-0.211 0.974,-0.183 0.986,-0.128 1.002,-0.069 1.016,-0.028 1.015,0.028 1.001,0.069 0.987,0.128 0.973,0.183 0.958,0.211 0.932,0.269 0.916,0.324 0.903,0.354 0.873,0.394 0.861,0.437 0.832,0.48 0.804,0.507 0.776,0.564 0.747,0.578 0.719,0.635 0.691,0.648 0.649,0.691 0.634,0.719 0.578,0.748 0.564,0.776 0.508,0.803 0.479,0.832 0.438,0.86 0.394,0.875 0.353,0.901 0.324,0.917 0.268,0.931 0.211,0.959 0.184,0.973 0.127,0.987 0.07,1.002 0.028,1.015 -0.028,1.014 z m -0.79,-2.989 -0.071,-0.959 -0.112,-0.945 -0.17,-0.931 -0.211,-0.916 -0.254,-0.903 -0.295,-0.873 -0.339,-0.861 -0.381,-0.832 -0.423,-0.818 -0.452,-0.789 -0.493,-0.777 -0.536,-0.747 -0.564,-0.705 -0.592,-0.691 -0.634,-0.662 -0.663,-0.636 -0.692,-0.591 -0.705,-0.564 -0.747,-0.536 -0.775,-0.494 -0.79,-0.451 -0.818,-0.423 -0.832,-0.38 -0.86,-0.339 -0.874,-0.297 -0.903,-0.253 -0.917,-0.212 -0.93,-0.169 -0.946,-0.113 -0.958,-0.07 -0.972,-0.029 -0.974,0.029 -0.959,0.07 -0.944,0.113 -0.931,0.169 -0.917,0.212 -0.903,0.253 -0.874,0.297 -0.86,0.339 -0.845,0.38 -0.819,0.423 -0.789,0.451 -0.776,0.494 -0.733,0.536 -0.719,0.564 -0.691,0.591 -0.663,0.636 -0.62,0.662 -0.607,0.691 -0.564,0.705 -0.522,0.747 -0.493,0.777 -0.452,0.789 -0.423,0.818 -0.381,0.832 -0.337,0.861 -0.297,0.873 -0.267,0.903 -0.212,0.916 -0.155,0.931 -0.127,0.945 -0.07,0.959 -0.029,0.973 0.029,0.972 0.07,0.96 0.127,0.944 0.155,0.931 0.212,0.916 0.267,0.903 0.297,0.874 0.337,0.86 0.381,0.846 0.423,0.819 0.452,0.789 0.493,0.775 0.522,0.734 0.564,0.719 0.607,0.691 0.62,0.663 0.663,0.62 0.691,0.606 0.719,0.564 0.733,0.522 0.776,0.494 0.789,0.451 0.819,0.423 0.845,0.381 0.86,0.339 0.874,0.295 0.903,0.269 0.917,0.211 0.931,0.155 0.944,0.127 0.959,0.07 0.974,0.028 0.972,-0.028 0.958,-0.07 0.946,-0.127 0.93,-0.155 0.917,-0.211 0.903,-0.269 0.874,-0.295 0.86,-0.339 0.832,-0.381 0.818,-0.423 0.79,-0.451 0.775,-0.494 0.747,-0.522 0.705,-0.564 0.692,-0.606 0.663,-0.62 0.634,-0.663 0.592,-0.691 0.564,-0.719 0.536,-0.734 0.493,-0.775 0.452,-0.789 0.423,-0.819 0.381,-0.846 0.339,-0.86 0.295,-0.874 0.254,-0.903 0.211,-0.916 0.17,-0.931 0.112,-0.944 0.071,-0.96 0.028,-0.972 z" />
      </g>
      <g
         transform="matrix(0.35277777,0,0,-0.35277777,332.02112,123.10601)"
         id="g889">
        <path
           inkscape:connector-curvature="0"
           id="path891"
           style="fill:#e22e2e;fill-opacity:1;fill-rule:nonzero;stroke:none"
           d="m 0,0 -0.113,0.888 -0.169,0.861 -0.197,0.859 -0.24,0.833 -0.268,0.817 -0.324,0.805 -0.353,0.789 -0.394,0.762 -0.424,0.732 -0.465,0.72 -0.494,0.69 -0.522,0.678 -0.55,0.634 -0.591,0.621 -0.606,0.578 -0.649,0.564 -0.663,0.522 -0.705,0.493 -0.705,0.452 -0.747,0.437 -0.762,0.38 -0.79,0.353 -0.79,0.325 -0.832,0.282 -0.832,0.225 -0.86,0.211 -0.859,0.155 -0.889,0.114 -0.902,0.055 -0.903,0.029 -0.903,-0.029 -0.902,-0.055 -0.889,-0.114 -0.859,-0.155 -0.861,-0.211 -0.832,-0.225 -0.818,-0.282 -0.804,-0.325 -0.789,-0.353 -0.762,-0.38 -0.733,-0.437 -0.719,-0.452 -0.691,-0.493 -0.677,-0.522 -0.634,-0.564 -0.621,-0.578 -0.578,-0.621 -0.564,-0.634 -0.521,-0.678 -0.494,-0.69 L -32.7,7.346 -33.138,6.614 -33.518,5.852 -33.871,5.063 -34.195,4.258 -34.477,3.441 -34.703,2.608 -34.915,1.749 -35.07,0.888 -35.182,0 l -0.056,-0.903 -0.028,-0.902 0.028,-0.902 0.056,-0.903 0.112,-0.888 0.155,-0.86 0.212,-0.861 0.226,-0.832 0.282,-0.831 0.324,-0.79 0.353,-0.789 0.38,-0.762 0.438,-0.747 0.451,-0.705 0.494,-0.705 0.521,-0.663 0.564,-0.649 0.578,-0.606 0.621,-0.593 0.634,-0.549 0.677,-0.523 0.691,-0.492 0.719,-0.467 0.733,-0.423 0.762,-0.394 0.789,-0.352 0.804,-0.325 0.818,-0.268 0.832,-0.24 0.861,-0.198 0.859,-0.168 0.889,-0.114 0.902,-0.055 0.903,-0.029 0.903,0.029 0.902,0.055 0.889,0.114 0.859,0.168 0.86,0.198 0.832,0.24 0.832,0.268 0.79,0.325 0.79,0.352 0.762,0.394 0.747,0.423 0.705,0.467 0.705,0.492 0.663,0.523 0.649,0.549 0.606,0.593 0.591,0.606 0.55,0.649 0.522,0.663 0.494,0.705 0.465,0.705 0.424,0.747 0.394,0.762 0.353,0.789 0.324,0.79 0.268,0.831 0.24,0.832 0.197,0.861 0.169,0.86 0.113,0.888 0.057,0.903 0.027,0.902 -0.027,0.902 z m -2.383,0.253 -0.099,-0.691 -0.17,-0.662 -0.238,-0.649 -0.282,-0.606 -0.353,-0.564 -0.396,-0.535 -0.45,-0.494 -0.438,-0.409 -0.479,-0.366 -0.508,-0.325 -0.535,-0.283 0.24,-0.408 0.225,-0.438 0.183,-0.436 0.141,-0.466 0.127,-0.465 0.084,-0.479 0.057,-0.493 0.014,-0.509 -0.042,-0.718 -0.098,-0.692 -0.17,-0.663 -0.239,-0.648 -0.282,-0.606 -0.353,-0.578 -0.395,-0.537 -0.452,-0.494 -0.492,-0.45 -0.537,-0.396 -0.577,-0.351 -0.606,-0.282 -0.65,-0.241 -0.663,-0.168 -0.69,-0.099 -0.706,-0.044 -0.705,0.044 -0.69,0.099 -0.663,0.168 -0.649,0.241 -0.606,0.282 -0.564,0.351 -0.536,0.396 -0.493,0.45 -0.48,0.522 -0.226,-0.267 -0.24,-0.24 v -0.015 l -0.493,-0.45 -0.536,-0.396 -0.564,-0.351 -0.606,-0.282 -0.648,-0.241 -0.663,-0.168 -0.692,-0.099 -0.705,-0.044 -0.704,0.044 -0.692,0.099 -0.676,0.168 -0.635,0.241 -0.606,0.282 -0.579,0.351 -0.535,0.396 -0.494,0.45 -0.451,0.494 -0.396,0.537 -0.351,0.578 -0.297,0.606 -0.24,0.648 -0.169,0.663 -0.098,0.692 -0.042,0.705 0.014,0.507 0.056,0.493 0.085,0.494 0.127,0.465 0.154,0.466 0.184,0.436 0.226,0.438 0.239,0.408 -0.536,0.283 -0.507,0.325 -0.48,0.366 -0.438,0.409 -0.45,0.494 -0.396,0.535 -0.351,0.564 -0.297,0.606 -0.24,0.649 -0.168,0.662 -0.1,0.691 -0.042,0.707 0.042,0.705 0.1,0.69 0.168,0.663 0.24,0.634 0.297,0.606 0.351,0.579 0.396,0.535 0.45,0.494 0.494,0.451 0.537,0.409 0.577,0.338 0.607,0.297 0.635,0.24 0.676,0.168 0.692,0.101 0.705,0.041 0.69,-0.028 0.678,-0.099 0.07,0.635 0.141,0.606 0.183,0.592 0.24,0.564 0.282,0.55 0.324,0.508 0.366,0.479 0.409,0.452 0.494,0.45 0.537,0.409 0.577,0.339 0.606,0.296 0.635,0.24 0.663,0.169 0.691,0.099 0.705,0.042 0.705,-0.042 0.69,-0.099 0.664,-0.169 0.648,-0.24 0.606,-0.296 0.579,-0.339 0.536,-0.409 0.493,-0.45 0.409,-0.452 0.366,-0.479 0.326,-0.508 0.295,-0.55 0.225,-0.564 0.185,-0.592 0.14,-0.606 0.07,-0.635 0.678,0.099 0.691,0.028 0.705,-0.041 0.69,-0.101 0.678,-0.168 0.634,-0.24 0.606,-0.297 0.579,-0.338 0.535,-0.409 0.494,-0.451 0.45,-0.494 0.396,-0.535 0.353,-0.579 0.282,-0.606 0.238,-0.634 0.17,-0.663 0.099,-0.69 0.042,-0.705 z" />
      </g>
      <g
         transform="matrix(0.35277777,0,0,-0.35277777,322.05215,124.69788)"
         id="g893">
        <path
           inkscape:connector-curvature="0"
           id="path895"
           style="fill:#e22e2e;fill-opacity:1;fill-rule:nonzero;stroke:none"
           d="M 0,0 0.183,0.198 0.366,0.381 V 0.394 L 0.86,0.846 1.396,1.242 1.974,1.593 2.58,1.875 3.229,2.115 3.892,2.284 4.583,2.383 5.288,2.425 5.809,2.412 6.317,2.355 6.824,2.257 7.304,2.13 7.516,2.467 7.714,2.835 7.883,3.201 8.023,3.582 8.137,3.976 8.234,4.386 8.291,4.809 8.32,5.232 7.615,5.527 6.937,5.909 6.317,6.346 6.036,6.586 5.754,6.853 5.344,7.304 4.978,7.784 4.653,8.305 4.371,8.842 4.132,9.42 3.948,10.012 3.808,10.632 3.736,11.267 3.06,11.38 2.368,11.422 1.762,11.393 1.17,11.295 0.592,11.154 0.042,10.957 -0.48,10.703 -0.973,10.407 -1.425,10.054 -1.848,9.674 -2.229,9.251 -2.58,8.8 -2.877,8.305 -3.13,7.784 -3.328,7.234 -3.469,6.67 -3.568,6.077 -3.595,5.471 -3.568,4.865 -3.469,4.273 -3.328,3.694 -3.13,3.145 -2.877,2.637 -2.58,2.143 l 0.351,-0.465 0.381,-0.423 0.41,-0.381 0.451,-0.339 0.48,-0.282 z" />
      </g>
      <g
         transform="matrix(0.35277777,0,0,-0.35277777,326.46452,123.68298)"
         id="g897">
        <path
           inkscape:connector-curvature="0"
           id="path899"
           style="fill:#e22e2e;fill-opacity:1;fill-rule:nonzero;stroke:none"
           d="M 0,0 -0.141,0.394 -0.267,0.804 -0.366,1.227 -0.437,1.635 -0.479,2.073 -1.143,1.974 -1.846,1.945 -2.538,1.974 -3.201,2.073 -3.258,1.635 -3.328,1.227 -3.426,0.804 -3.54,0.394 -3.694,0 l -0.17,-0.381 -0.183,-0.366 -0.211,-0.367 0.522,-0.282 0.507,-0.324 0.48,-0.353 0.436,-0.409 0.24,-0.254 0.227,-0.268 0.478,0.522 0.437,0.409 0.48,0.353 0.493,0.324 0.537,0.282 -0.212,0.367 -0.197,0.366 z" />
      </g>
      <g
         transform="matrix(0.35277777,0,0,-0.35277777,323.96234,120.56396)"
         id="g901">
        <path
           inkscape:connector-curvature="0"
           id="path903"
           style="fill:#e22e2e;fill-opacity:1;fill-rule:nonzero;stroke:none"
           d="m 0,0 0.339,-0.183 0.337,-0.198 0.621,-0.451 0.564,-0.507 0.41,-0.452 0.379,-0.48 0.326,-0.52 0.282,-0.551 0.24,-0.564 0.183,-0.592 0.14,-0.621 0.071,-0.635 0.663,-0.112 0.69,-0.042 0.354,0.013 0.351,0.029 0.664,0.112 0.07,0.635 0.14,0.621 0.185,0.592 0.24,0.564 0.281,0.551 0.325,0.52 0.379,0.48 0.41,0.452 0.564,0.507 0.621,0.451 0.324,0.198 L 10.491,0 10.844,0.169 11.196,0.31 11.154,0.874 11.042,1.438 10.901,1.974 10.689,2.482 10.449,2.976 10.153,3.441 9.829,3.864 9.462,4.273 9.038,4.654 8.573,4.992 8.08,5.302 7.573,5.542 7.022,5.754 6.444,5.894 5.852,5.993 5.245,6.021 4.639,5.993 4.047,5.894 3.483,5.754 2.934,5.542 2.412,5.302 1.918,4.992 1.467,4.654 1.044,4.273 0.676,3.864 0.352,3.441 0.057,2.976 -0.183,2.482 -0.395,1.974 -0.549,1.438 -0.648,0.874 -0.705,0.31 -0.339,0.169 Z" />
      </g>
      <g
         transform="matrix(0.35277777,0,0,-0.35277777,325.28557,125.95634)"
         id="g905">
        <path
           inkscape:connector-curvature="0"
           id="path907"
           style="fill:#e22e2e;fill-opacity:1;fill-rule:nonzero;stroke:none"
           d="M 0,0 0.07,0.465 0.183,0.916 0.324,1.353 0.493,1.776 0.676,2.2 0.903,2.594 0.634,2.932 0.339,3.258 -0.084,3.637 -0.536,3.976 -1.015,4.273 -1.523,4.527 -1.89,4.131 -2.383,3.681 -2.919,3.271 -3.483,2.932 -4.089,2.637 -4.738,2.397 -5.401,2.228 -6.091,2.128 -6.797,2.087 -7.318,2.1 -7.826,2.157 -8.333,2.256 -8.828,2.383 -9.053,2.016 -9.25,1.636 -9.434,1.24 -9.575,0.818 -9.688,0.394 -9.772,-0.042 -9.829,-0.493 -9.842,-0.96 l 0.028,-0.606 0.098,-0.591 0.141,-0.579 0.198,-0.55 0.253,-0.507 0.296,-0.494 0.354,-0.466 0.379,-0.423 0.424,-0.38 0.466,-0.339 0.493,-0.31 0.522,-0.253 0.55,-0.198 0.563,-0.141 0.593,-0.099 0.607,-0.028 0.606,0.028 0.592,0.099 0.564,0.141 0.55,0.198 0.522,0.253 0.494,0.297 0.465,0.352 0.423,0.38 0.295,0.325 0.269,0.338 L 0.676,-4.117 0.493,-3.694 0.324,-3.272 0.183,-2.821 0.07,-2.37 0,-1.903 l -0.056,0.478 -0.014,0.48 0.014,0.479 z" />
      </g>
      <g
         transform="matrix(0.35277777,0,0,-0.35277777,324.83295,121.97673)"
         id="g909">
        <path
           inkscape:connector-curvature="0"
           id="path911"
           style="fill:#e22e2e;fill-opacity:1;fill-rule:nonzero;stroke:none"
           d="M 0,0 -0.198,0.438 -0.423,0.846 -0.69,1.24 -0.973,1.608 -1.297,1.96 l -0.409,0.366 -0.437,0.339 -0.48,0.296 -0.494,0.24 0.099,-0.479 0.128,-0.466 0.169,-0.451 0.197,-0.437 0.225,-0.41 0.268,-0.394 0.282,-0.366 0.324,-0.354 0.41,-0.366 0.436,-0.338 0.466,-0.296 0.494,-0.24 -0.085,0.48 -0.126,0.465 z" />
      </g>
      <g
         transform="matrix(0.35277777,0,0,-0.35277777,323.9176,124.19034)"
         id="g913">
        <path
           inkscape:connector-curvature="0"
           id="path915"
           style="fill:#e22e2e;fill-opacity:1;fill-rule:nonzero;stroke:none"
           d="m 0,0 -0.606,-0.029 -0.592,-0.098 -0.565,-0.141 -0.55,-0.197 -0.522,-0.255 -0.493,-0.295 -0.465,-0.353 -0.423,-0.381 -0.042,-0.028 0.663,-0.113 0.676,-0.042 0.606,0.029 0.593,0.097 0.564,0.141 0.55,0.198 0.522,0.254 0.493,0.31 0.465,0.339 0.423,0.381 0.029,0.042 -0.65,0.099 z" />
      </g>
      <g
         transform="matrix(0.35277777,0,0,-0.35277777,330.80231,122.34485)"
         id="g917">
        <path
           inkscape:connector-curvature="0"
           id="path919"
           style="fill:#e22e2e;fill-opacity:1;fill-rule:nonzero;stroke:none"
           d="M 0,0 -0.141,0.564 -0.338,1.114 -0.591,1.635 -0.888,2.13 -1.241,2.581 -1.622,3.003 -2.045,3.384 -2.496,3.736 -2.989,4.033 -3.511,4.287 -4.061,4.484 -4.639,4.625 -5.232,4.723 -5.838,4.752 -6.19,4.738 -6.543,4.71 -7.205,4.597 -7.276,3.963 -7.417,3.357 -7.6,2.749 -7.826,2.185 -8.122,1.635 -8.446,1.114 -8.813,0.634 -9.221,0.183 h -0.015 l -0.282,-0.268 -0.281,-0.239 -0.622,-0.437 -0.662,-0.382 -0.705,-0.295 0.027,-0.423 0.057,-0.423 0.099,-0.41 0.113,-0.394 0.141,-0.381 0.169,-0.366 0.198,-0.367 0.212,-0.338 0.478,0.127 0.508,0.098 0.508,0.057 0.522,0.013 0.704,-0.042 0.692,-0.099 0.662,-0.169 0.649,-0.24 0.607,-0.282 0.578,-0.351 0.535,-0.396 0.494,-0.451 0.366,-0.395 0.508,0.254 0.48,0.282 0.451,0.339 0.408,0.381 0.381,0.422 0.353,0.465 0.297,0.494 0.253,0.508 0.197,0.549 0.141,0.579 0.099,0.592 0.028,0.607 -0.028,0.606 z" />
      </g>
      <g
         transform="matrix(0.35277777,0,0,-0.35277777,327.55393,121.03665)"
         id="g921">
        <path
           inkscape:connector-curvature="0"
           id="path923"
           style="fill:#e22e2e;fill-opacity:1;fill-rule:nonzero;stroke:none"
           d="m 0,0 -0.438,-0.338 -0.408,-0.367 -0.324,-0.353 -0.282,-0.367 -0.268,-0.393 -0.227,-0.409 -0.196,-0.438 -0.17,-0.451 -0.126,-0.466 -0.099,-0.478 0.507,0.238 0.466,0.297 0.437,0.339 0.409,0.366 0.324,0.353 0.282,0.367 0.269,0.394 0.225,0.409 0.197,0.437 0.17,0.452 0.126,0.465 0.084,0.48 -0.492,-0.24 z" />
      </g>
      <g
         transform="matrix(0.35277777,0,0,-0.35277777,327.56886,124.50882)"
         id="g925">
        <path
           inkscape:connector-curvature="0"
           id="path927"
           style="fill:#e22e2e;fill-opacity:1;fill-rule:nonzero;stroke:none"
           d="M 0,0 0.493,-0.31 1.015,-0.564 1.551,-0.761 2.13,-0.903 2.722,-1.001 3.328,-1.029 4.006,-0.987 4.654,-0.874 4.625,-0.846 4.202,-0.465 3.738,-0.127 3.244,0.183 2.722,0.423 2.172,0.634 1.608,0.775 1.015,0.874 0.409,0.903 -0.267,0.861 -0.916,0.762 -0.888,0.72 -0.465,0.339 Z" />
      </g>
      <g
         transform="matrix(0.35277777,0,0,-0.35277777,329.72291,125.66777)"
         id="g929">
        <path
           inkscape:connector-curvature="0"
           id="path931"
           style="fill:#e22e2e;fill-opacity:1;fill-rule:nonzero;stroke:none"
           d="M 0,0 -0.156,0.423 -0.324,0.818 -0.536,1.198 -0.761,1.565 -1.241,1.438 -1.749,1.339 -2.256,1.283 -2.778,1.269 -3.483,1.311 -4.174,1.41 -4.837,1.579 -5.486,1.818 -6.091,2.115 -6.655,2.454 -7.192,2.862 -7.685,3.313 -8.052,3.694 -8.56,3.454 -9.038,3.158 -9.49,2.82 -9.913,2.439 l -0.296,-0.324 -0.283,-0.339 0.227,-0.394 0.197,-0.424 0.155,-0.423 0.155,-0.437 0.099,-0.45 0.084,-0.466 0.057,-0.479 0.013,-0.48 -0.013,-0.48 -0.057,-0.465 -0.084,-0.465 -0.099,-0.452 -0.155,-0.451 -0.155,-0.423 -0.197,-0.423 -0.227,-0.395 0.579,-0.662 0.423,-0.381 0.465,-0.338 0.494,-0.31 0.522,-0.254 0.535,-0.198 0.579,-0.141 0.591,-0.099 0.608,-0.027 0.605,0.027 0.593,0.099 0.564,0.141 0.55,0.198 0.522,0.254 0.494,0.31 0.465,0.338 0.423,0.381 0.38,0.423 0.353,0.465 0.296,0.493 0.253,0.522 0.198,0.55 0.141,0.564 0.099,0.593 0.028,0.62 -0.015,0.452 -0.056,0.451 -0.085,0.437 z" />
      </g>
      <g
         transform="matrix(0.35277777,0,0,-0.35277777,326.00682,126.05583)"
         id="g933">
        <path
           inkscape:connector-curvature="0"
           id="path935"
           style="fill:#e22e2e;fill-opacity:1;fill-rule:nonzero;stroke:none"
           d="m 0,0 -0.113,0.663 -0.183,0.62 -0.253,0.607 -0.24,-0.593 -0.183,-0.634 -0.114,-0.649 -0.042,-0.677 0.042,-0.677 0.114,-0.662 0.183,-0.635 0.24,-0.606 0.253,0.606 0.183,0.635 0.113,0.648 0.042,0.676 z" />
      </g>
      <g
         id="g937"
         transform="matrix(0.35277777,0,0,-0.35277777,300.29176,393.94818)">
        <g
           clip-path="url(#clipPath943)"
           id="g939">
          <g
             transform="translate(64.080002,724.273)"
             id="g945">
            <path
               inkscape:connector-curvature="0"
               id="path947"
               style="fill:#3f98ce;fill-opacity:1;fill-rule:nonzero;stroke:none"
               d="m 0,0 c -0.232,-0.098 -0.466,-0.147 -0.703,-0.147 -0.373,0 -0.708,0.065 -1.006,0.195 -0.298,0.129 -0.549,0.308 -0.754,0.535 -0.204,0.228 -0.361,0.495 -0.471,0.802 -0.109,0.307 -0.163,0.638 -0.163,0.993 0,0.363 0.054,0.701 0.163,1.013 0.11,0.311 0.267,0.583 0.471,0.815 0.205,0.232 0.456,0.414 0.754,0.546 0.298,0.132 0.633,0.198 1.006,0.198 0.251,0 0.493,-0.038 0.727,-0.113 C 0.258,4.762 0.47,4.652 0.658,4.506 0.847,4.36 1.003,4.181 1.126,3.967 1.249,3.753 1.324,3.508 1.351,3.23 H 0.327 C 0.264,3.503 0.141,3.708 -0.041,3.844 -0.223,3.981 -0.443,4.049 -0.703,4.049 -0.944,4.049 -1.148,4.002 -1.316,3.909 -1.485,3.816 -1.621,3.691 -1.726,3.534 -1.831,3.377 -1.907,3.198 -1.954,2.998 c -0.048,-0.2 -0.072,-0.407 -0.072,-0.62 0,-0.205 0.024,-0.404 0.072,-0.597 0.047,-0.194 0.123,-0.368 0.228,-0.522 0.105,-0.155 0.241,-0.279 0.41,-0.372 0.168,-0.093 0.372,-0.14 0.613,-0.14 0.355,0 0.629,0.09 0.823,0.27 0.193,0.179 0.305,0.44 0.337,0.781 H -0.621 V 2.596 H 1.426 V -0.037 H 0.744 L 0.634,0.515 C 0.443,0.269 0.232,0.098 0,0" />
          </g>
          <g
             transform="translate(68.616806,726.903)"
             id="g949">
            <path
               inkscape:connector-curvature="0"
               id="path951"
               style="fill:#3f98ce;fill-opacity:1;fill-rule:nonzero;stroke:none"
               d="M 0,0 C 0.246,0 0.43,0.054 0.553,0.164 0.675,0.273 0.737,0.45 0.737,0.696 0.737,0.932 0.675,1.104 0.553,1.211 0.43,1.318 0.246,1.371 0,1.371 H -1.174 V 0 Z M 0.382,2.204 C 0.6,2.204 0.797,2.168 0.972,2.098 1.147,2.027 1.297,1.931 1.422,1.808 1.547,1.685 1.643,1.543 1.709,1.381 1.775,1.22 1.808,1.046 1.808,0.86 1.808,0.573 1.747,0.325 1.627,0.116 1.507,-0.093 1.31,-0.252 1.037,-0.362 V -0.375 C 1.169,-0.412 1.278,-0.467 1.364,-0.542 1.451,-0.617 1.521,-0.706 1.576,-0.808 1.631,-0.911 1.67,-1.023 1.695,-1.146 1.72,-1.269 1.737,-1.392 1.747,-1.515 1.751,-1.592 1.755,-1.683 1.76,-1.788 1.764,-1.892 1.773,-1.999 1.784,-2.108 1.795,-2.217 1.813,-2.321 1.838,-2.418 1.863,-2.516 1.901,-2.599 1.951,-2.667 H 0.88 c -0.059,0.154 -0.095,0.338 -0.109,0.552 -0.014,0.214 -0.034,0.418 -0.062,0.614 -0.036,0.255 -0.113,0.441 -0.232,0.56 -0.118,0.118 -0.311,0.177 -0.579,0.177 h -1.072 v -1.903 h -1.071 v 4.871 z" />
          </g>
          <g
             transform="translate(72.229095,726.0536)"
             id="g953">
            <path
               inkscape:connector-curvature="0"
               id="path955"
               style="fill:#3f98ce;fill-opacity:1;fill-rule:nonzero;stroke:none"
               d="m 0,0 c 0.048,-0.193 0.124,-0.368 0.228,-0.522 0.105,-0.155 0.241,-0.279 0.41,-0.372 0.168,-0.093 0.372,-0.14 0.614,-0.14 0.241,0 0.445,0.047 0.614,0.14 0.168,0.093 0.304,0.217 0.409,0.372 C 2.38,-0.368 2.456,-0.193 2.504,0 2.551,0.193 2.575,0.392 2.575,0.597 2.575,0.811 2.551,1.018 2.504,1.218 2.456,1.418 2.38,1.596 2.275,1.753 2.17,1.91 2.034,2.035 1.866,2.128 1.697,2.222 1.493,2.268 1.252,2.268 1.01,2.268 0.806,2.222 0.638,2.128 0.469,2.035 0.333,1.91 0.228,1.753 0.124,1.596 0.048,1.418 0,1.218 -0.048,1.018 -0.072,0.811 -0.072,0.597 -0.072,0.392 -0.048,0.193 0,0 m -0.979,1.61 c 0.109,0.311 0.266,0.583 0.471,0.815 0.204,0.232 0.456,0.414 0.754,0.546 0.297,0.132 0.633,0.198 1.006,0.198 0.377,0 0.714,-0.066 1.009,-0.198 C 2.557,2.839 2.807,2.657 3.012,2.425 3.217,2.193 3.374,1.921 3.483,1.61 3.592,1.299 3.646,0.961 3.646,0.597 3.646,0.242 3.592,-0.089 3.483,-0.396 3.374,-0.703 3.217,-0.97 3.012,-1.197 2.807,-1.425 2.557,-1.603 2.261,-1.733 1.966,-1.862 1.629,-1.927 1.252,-1.927 c -0.373,0 -0.709,0.065 -1.006,0.194 -0.298,0.13 -0.55,0.308 -0.754,0.536 -0.205,0.227 -0.362,0.494 -0.471,0.801 -0.109,0.307 -0.164,0.638 -0.164,0.993 0,0.364 0.055,0.702 0.164,1.013" />
          </g>
          <g
             transform="translate(80.187103,724.6073)"
             id="g957">
            <path
               inkscape:connector-curvature="0"
               id="path959"
               style="fill:#3f98ce;fill-opacity:1;fill-rule:nonzero;stroke:none"
               d="m 0,0 c -0.368,-0.321 -0.878,-0.481 -1.528,-0.481 -0.66,0 -1.17,0.159 -1.532,0.477 -0.361,0.319 -0.542,0.81 -0.542,1.474 v 3.029 h 1.071 V 1.47 c 0,-0.132 0.011,-0.261 0.034,-0.389 0.023,-0.127 0.071,-0.24 0.143,-0.337 0.073,-0.098 0.174,-0.178 0.304,-0.239 0.129,-0.062 0.303,-0.092 0.522,-0.092 0.382,0 0.646,0.085 0.791,0.256 0.146,0.17 0.219,0.437 0.219,0.801 V 4.499 H 0.553 V 1.47 C 0.553,0.811 0.368,0.321 0,0" />
          </g>
          <g
             transform="translate(83.564301,726.81441)"
             id="g961">
            <path
               inkscape:connector-curvature="0"
               id="path963"
               style="fill:#3f98ce;fill-opacity:1;fill-rule:nonzero;stroke:none"
               d="m 0,0 c 0.123,0 0.241,0.009 0.355,0.027 0.113,0.018 0.213,0.054 0.3,0.106 0.086,0.052 0.156,0.126 0.208,0.222 0.052,0.095 0.078,0.22 0.078,0.375 0,0.155 -0.026,0.28 -0.078,0.375 C 0.811,1.201 0.741,1.274 0.655,1.327 0.568,1.379 0.468,1.414 0.355,1.432 0.241,1.451 0.123,1.46 0,1.46 H -0.832 V 0 Z M 0.293,2.292 C 0.598,2.292 0.857,2.248 1.071,2.159 1.285,2.07 1.459,1.953 1.593,1.808 1.727,1.662 1.825,1.496 1.886,1.31 1.948,1.123 1.979,0.93 1.979,0.73 1.979,0.534 1.948,0.342 1.886,0.153 1.825,-0.035 1.727,-0.203 1.593,-0.348 1.459,-0.494 1.285,-0.611 1.071,-0.7 0.857,-0.788 0.598,-0.832 0.293,-0.832 h -1.125 v -1.747 h -1.071 v 4.871 z" />
          </g>
        </g>
      </g>
    </g>
  </g>
</svg>
